<svg width="636" height="792" viewBox="0 0 636 792" fill="none" xmlns="http://www.w3.org/2000/svg">
<rect x="1.5" y="1.5" width="633" height="789" rx="39.5" fill="url(#paint0_linear_1_6705)" stroke="#00FFD1" stroke-width="3"/>
<path d="M163 96C163 102.861 159.266 109 154 109C159.266 109 163 115.139 163 122C163 115.139 166.734 109 172 109C166.734 109 163 102.861 163 96Z" fill="#E363E6"/>
<path opacity="0.5" d="M80 36C80 51.3062 71.7023 65 60 65C71.7023 65 80 78.6948 80 94C80 78.6948 88.2977 65 100 65C88.2977 65 80 51.3062 80 36Z" fill="#00FFD1"/>
<path opacity="0.5" d="M574 80C574 92.1394 567.362 103 558 103C567.362 103 574 113.861 574 126C574 113.861 580.638 103 590 103C580.638 103 574 92.1394 574 80Z" fill="#1E1DD2"/>
<path opacity="0.5" d="M48 122C48 134.139 41.3618 145 32 145C41.3618 145 48 155.861 48 168C48 155.861 54.6382 145 64 145C54.6382 145 48 134.139 48 122Z" fill="#1E1DD2"/>
<path opacity="0.5" d="M549 134C549 140.861 545.266 147 540 147C545.266 147 549 153.139 549 160C549 153.139 552.734 147 558 147C552.734 147 549 140.861 549 134Z" fill="#E363E6"/>
<path opacity="0.5" d="M468 68C468 74.8614 464.266 81 459 81C464.266 81 468 87.139 468 94C468 87.139 471.734 81 477 81C471.734 81 468 74.8614 468 68Z" fill="#C7F466"/>
<g filter="url(#filter0_d_1_6705)">
<path d="M231.67 103.316C229.832 100.27 231.544 96.239 234.989 95.5002L286.59 84.4352C288.238 84.0817 289.94 84.5933 291.126 85.7992L332.78 128.156C335.073 130.488 334.617 134.432 331.849 136.214L278.287 170.68C275.918 172.204 272.818 171.485 271.363 169.073L231.67 103.316Z" fill="url(#paint1_linear_1_6705)"/>
</g>
<path d="M297.896 75.7034C298.573 73.1068 301.142 71.4698 303.775 71.9567L349.325 80.3789C351.623 80.8037 353.331 82.7386 353.47 85.0731L356.417 134.686C356.579 137.41 354.569 139.787 351.856 140.08L286.378 147.165C282.836 147.549 280.016 144.275 280.915 140.824L297.896 75.7034Z" fill="url(#paint2_linear_1_6705)"/>
<path d="M303.203 102.621H305.065C305.609 102.621 305.974 102.519 306.161 102.315C306.348 102.111 306.442 101.822 306.442 101.448V89.6921H312.026V102.391C312.026 103.972 311.661 105.086 310.93 105.732C310.216 106.378 309.068 106.701 307.487 106.701H303.203V102.621ZM318.807 89.6921H322.887L329.339 106.701H323.984L323.423 105.171H318.272L317.711 106.701H312.355L318.807 89.6921ZM321.995 101.422L320.847 98.4388L319.7 101.422H321.995ZM334.235 94.1547H329.542L331.276 89.6921H342.165L336.249 102.238H341.834L340.125 106.701H328.318L334.235 94.1547ZM347.433 94.1547H342.741L344.475 89.6921H355.364L349.448 102.238H355.032L353.324 106.701H341.517L347.433 94.1547Z" fill="black"/>
<g filter="url(#filter1_d_1_6705)">
<path d="M303.203 102.621V101.346H301.928V102.621H303.203ZM306.161 102.315L307.101 103.176H307.101L306.161 102.315ZM306.442 89.6921V88.417H305.167V89.6921H306.442ZM312.026 89.6921H313.301V88.417H312.026V89.6921ZM310.93 105.732L310.086 104.777L310.08 104.782L310.074 104.787L310.93 105.732ZM303.203 106.701H301.928V107.976H303.203V106.701ZM303.203 103.896H305.065V101.346H303.203V103.896ZM305.065 103.896C305.66 103.896 306.523 103.807 307.101 103.176L305.221 101.453C305.338 101.326 305.44 101.306 305.404 101.316C305.39 101.32 305.356 101.328 305.297 101.335C305.238 101.341 305.162 101.346 305.065 101.346V103.896ZM307.101 103.176C307.57 102.665 307.717 102.027 307.717 101.448H305.167C305.167 101.531 305.156 101.56 305.158 101.553C305.16 101.548 305.165 101.535 305.176 101.515C305.187 101.496 305.202 101.475 305.221 101.453L307.101 103.176ZM307.717 101.448V89.6921H305.167V101.448H307.717ZM306.442 90.9671H312.026V88.417H306.442V90.9671ZM310.751 89.6921V102.391H313.301V89.6921H310.751ZM310.751 102.391C310.751 103.828 310.412 104.488 310.086 104.777L311.774 106.687C312.91 105.684 313.301 104.117 313.301 102.391H310.751ZM310.074 104.787C309.705 105.12 308.943 105.426 307.487 105.426V107.976C309.194 107.976 310.726 107.636 311.785 106.678L310.074 104.787ZM307.487 105.426H303.203V107.976H307.487V105.426ZM304.478 106.701V102.621H301.928V106.701H304.478ZM318.807 89.6921V88.417H317.927L317.615 89.2399L318.807 89.6921ZM322.887 89.6921L324.079 89.2399L323.767 88.417H322.887V89.6921ZM329.339 106.701V107.976H331.186L330.531 106.249L329.339 106.701ZM323.984 106.701L322.787 107.14L323.093 107.976H323.984V106.701ZM323.423 105.171L324.62 104.732L324.313 103.896H323.423V105.171ZM318.272 105.171V103.896H317.381L317.075 104.732L318.272 105.171ZM317.711 106.701V107.976H318.601L318.908 107.14L317.711 106.701ZM312.355 106.701L311.163 106.249L310.508 107.976H312.355V106.701ZM321.995 101.422V102.697H323.851L323.185 100.965L321.995 101.422ZM320.847 98.4388L322.037 97.9811L320.847 94.887L319.657 97.9811L320.847 98.4388ZM319.7 101.422L318.51 100.965L317.843 102.697H319.7V101.422ZM318.807 90.9671H322.887V88.417H318.807V90.9671ZM321.695 90.1443L328.147 107.153L330.531 106.249L324.079 89.2399L321.695 90.1443ZM329.339 105.426H323.984V107.976H329.339V105.426ZM325.181 106.262L324.62 104.732L322.226 105.61L322.787 107.14L325.181 106.262ZM323.423 103.896H318.272V106.446H323.423V103.896ZM317.075 104.732L316.514 106.262L318.908 107.14L319.469 105.61L317.075 104.732ZM317.711 105.426H312.355V107.976H317.711V105.426ZM313.548 107.153L319.999 90.1443L317.615 89.2399L311.163 106.249L313.548 107.153ZM323.185 100.965L322.037 97.9811L319.657 98.8965L320.805 101.88L323.185 100.965ZM319.657 97.9811L318.51 100.965L320.89 101.88L322.037 98.8965L319.657 97.9811ZM319.7 102.697H321.995V100.147H319.7V102.697ZM334.235 94.1547L335.388 94.6985L336.245 92.8797H334.235V94.1547ZM329.542 94.1547L328.354 93.6929L327.679 95.4297H329.542V94.1547ZM331.276 89.6921V88.417H330.404L330.088 89.2303L331.276 89.6921ZM342.165 89.6921L343.319 90.2359L344.176 88.417H342.165V89.6921ZM336.249 102.238L335.096 101.695L334.238 103.513H336.249V102.238ZM341.834 102.238L343.024 102.694L343.687 100.963H341.834V102.238ZM340.125 106.701V107.976H341.002L341.316 107.157L340.125 106.701ZM328.318 106.701L327.165 106.157L326.307 107.976H328.318V106.701ZM334.235 92.8797H329.542V95.4297H334.235V92.8797ZM330.731 94.6165L332.465 90.1539L330.088 89.2303L328.354 93.6929L330.731 94.6165ZM331.276 90.9671H342.165V88.417H331.276V90.9671ZM341.012 89.1483L335.096 101.695L337.402 102.782L343.319 90.2359L341.012 89.1483ZM336.249 103.513H341.834V100.963H336.249V103.513ZM340.643 101.783L338.934 106.245L341.316 107.157L343.024 102.694L340.643 101.783ZM340.125 105.426H328.318V107.976H340.125V105.426ZM329.472 107.245L335.388 94.6985L333.081 93.6109L327.165 106.157L329.472 107.245ZM347.433 94.1547L348.586 94.6985L349.444 92.8797H347.433V94.1547ZM342.741 94.1547L341.553 93.6929L340.878 95.4297H342.741V94.1547ZM344.475 89.6921V88.417H343.603L343.287 89.2303L344.475 89.6921ZM355.364 89.6921L356.517 90.2359L357.375 88.417H355.364V89.6921ZM349.448 102.238L348.294 101.695L347.437 103.513H349.448V102.238ZM355.032 102.238L356.223 102.694L356.886 100.963H355.032V102.238ZM353.324 106.701V107.976H354.201L354.515 107.157L353.324 106.701ZM341.517 106.701L340.364 106.157L339.506 107.976H341.517V106.701ZM347.433 92.8797H342.741V95.4297H347.433V92.8797ZM343.929 94.6165L345.664 90.1539L343.287 89.2303L341.553 93.6929L343.929 94.6165ZM344.475 90.9671H355.364V88.417H344.475V90.9671ZM354.211 89.1483L348.294 101.695L350.601 102.782L356.517 90.2359L354.211 89.1483ZM349.448 103.513H355.032V100.963H349.448V103.513ZM353.842 101.783L352.133 106.245L354.515 107.157L356.223 102.694L353.842 101.783ZM353.324 105.426H341.517V107.976H353.324V105.426ZM342.67 107.245L348.586 94.6985L346.28 93.6109L340.364 106.157L342.67 107.245Z" fill="#FF4FCE"/>
</g>
<path d="M257.137 123.828C257.137 124.628 257.284 125.387 257.578 126.104C257.872 126.794 258.273 127.401 258.78 127.925C259.288 128.45 259.876 128.863 260.544 129.167C261.239 129.47 261.974 129.622 262.749 129.622C263.524 129.622 264.246 129.47 264.914 129.167C265.609 128.863 266.21 128.45 266.718 127.925C267.225 127.401 267.626 126.794 267.92 126.104C268.214 125.387 268.361 124.628 268.361 123.828C268.361 123.028 268.214 122.283 267.92 121.593C267.626 120.875 267.225 120.254 266.718 119.73C266.21 119.206 265.609 118.792 264.914 118.489C264.246 118.185 263.524 118.033 262.749 118.033C261.974 118.033 261.239 118.185 260.544 118.489C259.876 118.792 259.288 119.206 258.78 119.73C258.273 120.254 257.872 120.875 257.578 121.593C257.284 122.283 257.137 123.028 257.137 123.828ZM262.749 133.347C261.466 133.347 260.264 133.099 259.141 132.602C258.046 132.106 257.07 131.43 256.215 130.574C255.386 129.691 254.732 128.684 254.251 127.553C253.77 126.394 253.529 125.152 253.529 123.828C253.529 122.503 253.77 121.275 254.251 120.144C254.732 118.985 255.386 117.978 256.215 117.123C257.07 116.24 258.046 115.55 259.141 115.053C260.264 114.557 261.466 114.308 262.749 114.308C264.032 114.308 265.221 114.557 266.317 115.053C267.439 115.55 268.415 116.24 269.243 117.123C270.098 117.978 270.766 118.985 271.247 120.144C271.728 121.275 271.969 122.503 271.969 123.828C271.969 125.152 271.728 126.394 271.247 127.553C270.766 128.684 270.098 129.691 269.243 130.574C268.415 131.43 267.439 132.106 266.317 132.602C265.221 133.099 264.032 133.347 262.749 133.347ZM248.719 123.828C248.719 121.841 249.08 119.965 249.801 118.199C250.549 116.433 251.552 114.901 252.808 113.605C254.09 112.28 255.587 111.245 257.297 110.5C259.008 109.728 260.825 109.342 262.749 109.342C264.673 109.342 266.49 109.728 268.201 110.5C269.911 111.245 271.394 112.28 272.65 113.605C273.933 114.901 274.935 116.433 275.657 118.199C276.405 119.965 276.779 121.841 276.779 123.828C276.779 125.014 276.646 126.159 276.379 127.263C276.111 128.367 275.737 129.402 275.256 130.367H277.741L274.134 137.61H267.038C265.622 138.079 264.192 138.314 262.749 138.314C260.825 138.314 259.008 137.941 257.297 137.196C255.587 136.424 254.09 135.389 252.808 134.092C251.552 132.768 250.549 131.223 249.801 129.457C249.08 127.691 248.719 125.814 248.719 123.828ZM267.078 133.43C267.96 133.016 268.762 132.478 269.484 131.816C270.205 131.154 270.82 130.409 271.328 129.581C271.862 128.753 272.276 127.856 272.57 126.891C272.864 125.897 273.011 124.876 273.011 123.828C273.011 122.365 272.744 121 272.21 119.73C271.675 118.433 270.94 117.302 270.005 116.336C269.069 115.371 267.974 114.612 266.718 114.06C265.488 113.508 264.165 113.232 262.749 113.232C261.333 113.232 259.996 113.508 258.74 114.06C257.511 114.612 256.429 115.371 255.493 116.336C254.558 117.302 253.823 118.433 253.289 119.73C252.754 121 252.487 122.365 252.487 123.828C252.487 125.29 252.754 126.67 253.289 127.967C253.823 129.236 254.558 130.353 255.493 131.319C256.429 132.285 257.524 133.044 258.78 133.596C260.063 134.147 261.44 134.423 262.909 134.423H273.132L273.613 133.43H267.078Z" fill="black"/>
<path d="M289.937 138.314C288.254 138.314 286.73 138.093 285.367 137.652C284.004 137.21 282.842 136.548 281.88 135.665C280.918 134.782 280.169 133.665 279.635 132.313C279.127 130.961 278.873 129.374 278.873 127.553V110.004H287.412V127.18C287.412 128.146 287.599 128.891 287.973 129.415C288.374 129.912 289.029 130.16 289.937 130.16C290.846 130.16 291.487 129.912 291.861 129.415C292.262 128.891 292.463 128.146 292.463 127.18V110.004H301.041V127.553C301.041 129.374 300.774 130.961 300.239 132.313C299.732 133.665 298.983 134.782 297.995 135.665C297.033 136.548 295.87 137.21 294.507 137.652C293.144 138.093 291.621 138.314 289.937 138.314ZM289.937 133.347C285.929 133.347 283.924 131.319 283.924 127.263V113.315H282.882V127.263C282.882 129.581 283.483 131.361 284.686 132.602C285.915 133.816 287.666 134.423 289.937 134.423C292.209 134.423 293.959 133.816 295.189 132.602C296.418 131.361 297.033 129.581 297.033 127.263V113.315H295.95V127.263C295.95 131.319 293.946 133.347 289.937 133.347Z" fill="black"/>
<path d="M303.735 110.004H312.794V137.61H303.735V110.004ZM308.785 134.299V113.315H307.743V134.299H308.785Z" fill="black"/>
<path d="M322.691 117.247H315.315L318.041 110.004H335.158L325.858 130.367H334.637L331.951 137.61H313.391L322.691 117.247ZM329.867 134.299L330.268 133.306H320.527L329.666 113.315H320.126L319.765 114.308H328.023L318.883 134.299H329.867Z" fill="black"/>
<path d="M342.656 117.247H335.28L338.006 110.004H355.123L345.823 130.367H354.602L351.916 137.61H333.356L342.656 117.247ZM349.832 134.299L350.233 133.306H340.492L349.632 113.315H340.091L339.73 114.308H347.988L338.848 134.299H349.832Z" fill="black"/>
<g filter="url(#filter2_d_1_6705)">
<mask id="path-13-outside-1_1_6705" maskUnits="userSpaceOnUse" x="247.348" y="108.264" width="110" height="33" fill="black">
<rect fill="white" x="247.348" y="108.264" width="110" height="33"/>
<path d="M257.73 124.677C257.73 125.473 257.876 126.228 258.169 126.941C258.462 127.628 258.861 128.232 259.366 128.753C259.872 129.275 260.457 129.687 261.122 129.989C261.814 130.291 262.546 130.442 263.318 130.442C264.089 130.442 264.808 130.291 265.473 129.989C266.165 129.687 266.763 129.275 267.269 128.753C267.775 128.232 268.174 127.628 268.466 126.941C268.759 126.228 268.905 125.473 268.905 124.677C268.905 123.88 268.759 123.139 268.466 122.453C268.174 121.739 267.775 121.122 267.269 120.6C266.763 120.078 266.165 119.667 265.473 119.365C264.808 119.063 264.089 118.912 263.318 118.912C262.546 118.912 261.814 119.063 261.122 119.365C260.457 119.667 259.872 120.078 259.366 120.6C258.861 121.122 258.462 121.739 258.169 122.453C257.876 123.139 257.73 123.88 257.73 124.677ZM263.318 134.148C262.04 134.148 260.843 133.9 259.725 133.406C258.635 132.912 257.663 132.24 256.812 131.389C255.987 130.51 255.335 129.508 254.856 128.383C254.377 127.23 254.138 125.994 254.138 124.677C254.138 123.359 254.377 122.137 254.856 121.012C255.335 119.859 255.987 118.857 256.812 118.006C257.663 117.127 258.635 116.441 259.725 115.947C260.843 115.453 262.04 115.206 263.318 115.206C264.595 115.206 265.779 115.453 266.87 115.947C267.987 116.441 268.959 117.127 269.783 118.006C270.635 118.857 271.3 119.859 271.779 121.012C272.258 122.137 272.498 123.359 272.498 124.677C272.498 125.994 272.258 127.23 271.779 128.383C271.3 129.508 270.635 130.51 269.783 131.389C268.959 132.24 267.987 132.912 266.87 133.406C265.779 133.9 264.595 134.148 263.318 134.148ZM249.348 124.677C249.348 122.7 249.707 120.833 250.426 119.076C251.171 117.319 252.169 115.796 253.419 114.506C254.696 113.188 256.187 112.158 257.889 111.417C259.592 110.649 261.402 110.264 263.318 110.264C265.233 110.264 267.043 110.649 268.746 111.417C270.449 112.158 271.925 113.188 273.176 114.506C274.453 115.796 275.451 117.319 276.17 119.076C276.915 120.833 277.287 122.7 277.287 124.677C277.287 125.857 277.154 126.996 276.888 128.094C276.622 129.192 276.249 130.222 275.77 131.183H278.245L274.653 138.389H267.588C266.178 138.856 264.754 139.089 263.318 139.089C261.402 139.089 259.592 138.718 257.889 137.977C256.187 137.208 254.696 136.179 253.419 134.889C252.169 133.571 251.171 132.034 250.426 130.277C249.707 128.52 249.348 126.653 249.348 124.677ZM267.628 134.23C268.506 133.818 269.305 133.283 270.023 132.624C270.741 131.965 271.353 131.224 271.859 130.4C272.391 129.577 272.804 128.685 273.096 127.724C273.389 126.735 273.535 125.72 273.535 124.677C273.535 123.222 273.269 121.863 272.737 120.6C272.205 119.31 271.473 118.184 270.542 117.223C269.611 116.263 268.52 115.508 267.269 114.959C266.045 114.41 264.728 114.135 263.318 114.135C261.907 114.135 260.577 114.41 259.326 114.959C258.102 115.508 257.025 116.263 256.093 117.223C255.162 118.184 254.43 119.31 253.898 120.6C253.366 121.863 253.1 123.222 253.1 124.677C253.1 126.132 253.366 127.504 253.898 128.794C254.43 130.057 255.162 131.169 256.093 132.13C257.025 133.091 258.116 133.846 259.366 134.395C260.643 134.944 262.014 135.218 263.477 135.218H273.655L274.134 134.23H267.628Z"/>
<path d="M290.388 139.089C288.712 139.089 287.195 138.869 285.838 138.43C284.481 137.991 283.323 137.332 282.365 136.453C281.407 135.575 280.662 134.463 280.13 133.118C279.625 131.773 279.372 130.194 279.372 128.383V110.923H287.873V128.012C287.873 128.973 288.06 129.714 288.432 130.236C288.831 130.73 289.483 130.977 290.388 130.977C291.293 130.977 291.931 130.73 292.304 130.236C292.703 129.714 292.902 128.973 292.902 128.012V110.923H301.444V128.383C301.444 130.194 301.178 131.773 300.645 133.118C300.14 134.463 299.395 135.575 298.41 136.453C297.452 137.332 296.295 137.991 294.938 138.43C293.581 138.869 292.064 139.089 290.388 139.089ZM290.388 134.148C286.397 134.148 284.401 132.13 284.401 128.094V114.217H283.363V128.094C283.363 130.4 283.962 132.171 285.159 133.406C286.383 134.614 288.126 135.218 290.388 135.218C292.65 135.218 294.392 134.614 295.616 133.406C296.84 132.171 297.452 130.4 297.452 128.094V114.217H296.375V128.094C296.375 132.13 294.379 134.148 290.388 134.148Z"/>
<path d="M304.125 110.923H313.146V138.389H304.125V110.923ZM309.154 135.095V114.217H308.117V135.095H309.154Z"/>
<path d="M323 118.129H315.656L318.37 110.923H335.413L326.153 131.183H334.894L332.22 138.389H313.74L323 118.129ZM330.144 135.095L330.544 134.106H320.845L329.945 114.217H320.446L320.086 115.206H328.308L319.208 135.095H330.144Z"/>
<path d="M342.878 118.129H335.535L338.249 110.923H355.291L346.032 131.183H354.772L352.098 138.389H333.619L342.878 118.129ZM350.023 135.095L350.422 134.106H340.723L349.823 114.217H340.324L339.965 115.206H348.187L339.087 135.095H350.023Z"/>
</mask>
<path d="M257.73 124.677C257.73 125.473 257.876 126.228 258.169 126.941C258.462 127.628 258.861 128.232 259.366 128.753C259.872 129.275 260.457 129.687 261.122 129.989C261.814 130.291 262.546 130.442 263.318 130.442C264.089 130.442 264.808 130.291 265.473 129.989C266.165 129.687 266.763 129.275 267.269 128.753C267.775 128.232 268.174 127.628 268.466 126.941C268.759 126.228 268.905 125.473 268.905 124.677C268.905 123.88 268.759 123.139 268.466 122.453C268.174 121.739 267.775 121.122 267.269 120.6C266.763 120.078 266.165 119.667 265.473 119.365C264.808 119.063 264.089 118.912 263.318 118.912C262.546 118.912 261.814 119.063 261.122 119.365C260.457 119.667 259.872 120.078 259.366 120.6C258.861 121.122 258.462 121.739 258.169 122.453C257.876 123.139 257.73 123.88 257.73 124.677ZM263.318 134.148C262.04 134.148 260.843 133.9 259.725 133.406C258.635 132.912 257.663 132.24 256.812 131.389C255.987 130.51 255.335 129.508 254.856 128.383C254.377 127.23 254.138 125.994 254.138 124.677C254.138 123.359 254.377 122.137 254.856 121.012C255.335 119.859 255.987 118.857 256.812 118.006C257.663 117.127 258.635 116.441 259.725 115.947C260.843 115.453 262.04 115.206 263.318 115.206C264.595 115.206 265.779 115.453 266.87 115.947C267.987 116.441 268.959 117.127 269.783 118.006C270.635 118.857 271.3 119.859 271.779 121.012C272.258 122.137 272.498 123.359 272.498 124.677C272.498 125.994 272.258 127.23 271.779 128.383C271.3 129.508 270.635 130.51 269.783 131.389C268.959 132.24 267.987 132.912 266.87 133.406C265.779 133.9 264.595 134.148 263.318 134.148ZM249.348 124.677C249.348 122.7 249.707 120.833 250.426 119.076C251.171 117.319 252.169 115.796 253.419 114.506C254.696 113.188 256.187 112.158 257.889 111.417C259.592 110.649 261.402 110.264 263.318 110.264C265.233 110.264 267.043 110.649 268.746 111.417C270.449 112.158 271.925 113.188 273.176 114.506C274.453 115.796 275.451 117.319 276.17 119.076C276.915 120.833 277.287 122.7 277.287 124.677C277.287 125.857 277.154 126.996 276.888 128.094C276.622 129.192 276.249 130.222 275.77 131.183H278.245L274.653 138.389H267.588C266.178 138.856 264.754 139.089 263.318 139.089C261.402 139.089 259.592 138.718 257.889 137.977C256.187 137.208 254.696 136.179 253.419 134.889C252.169 133.571 251.171 132.034 250.426 130.277C249.707 128.52 249.348 126.653 249.348 124.677ZM267.628 134.23C268.506 133.818 269.305 133.283 270.023 132.624C270.741 131.965 271.353 131.224 271.859 130.4C272.391 129.577 272.804 128.685 273.096 127.724C273.389 126.735 273.535 125.72 273.535 124.677C273.535 123.222 273.269 121.863 272.737 120.6C272.205 119.31 271.473 118.184 270.542 117.223C269.611 116.263 268.52 115.508 267.269 114.959C266.045 114.41 264.728 114.135 263.318 114.135C261.907 114.135 260.577 114.41 259.326 114.959C258.102 115.508 257.025 116.263 256.093 117.223C255.162 118.184 254.43 119.31 253.898 120.6C253.366 121.863 253.1 123.222 253.1 124.677C253.1 126.132 253.366 127.504 253.898 128.794C254.43 130.057 255.162 131.169 256.093 132.13C257.025 133.091 258.116 133.846 259.366 134.395C260.643 134.944 262.014 135.218 263.477 135.218H273.655L274.134 134.23H267.628Z" stroke="#FF4FCE" stroke-width="2.55007" mask="url(#path-13-outside-1_1_6705)"/>
<path d="M290.388 139.089C288.712 139.089 287.195 138.869 285.838 138.43C284.481 137.991 283.323 137.332 282.365 136.453C281.407 135.575 280.662 134.463 280.13 133.118C279.625 131.773 279.372 130.194 279.372 128.383V110.923H287.873V128.012C287.873 128.973 288.06 129.714 288.432 130.236C288.831 130.73 289.483 130.977 290.388 130.977C291.293 130.977 291.931 130.73 292.304 130.236C292.703 129.714 292.902 128.973 292.902 128.012V110.923H301.444V128.383C301.444 130.194 301.178 131.773 300.645 133.118C300.14 134.463 299.395 135.575 298.41 136.453C297.452 137.332 296.295 137.991 294.938 138.43C293.581 138.869 292.064 139.089 290.388 139.089ZM290.388 134.148C286.397 134.148 284.401 132.13 284.401 128.094V114.217H283.363V128.094C283.363 130.4 283.962 132.171 285.159 133.406C286.383 134.614 288.126 135.218 290.388 135.218C292.65 135.218 294.392 134.614 295.616 133.406C296.84 132.171 297.452 130.4 297.452 128.094V114.217H296.375V128.094C296.375 132.13 294.379 134.148 290.388 134.148Z" stroke="#FF4FCE" stroke-width="2.55007" mask="url(#path-13-outside-1_1_6705)"/>
<path d="M304.125 110.923H313.146V138.389H304.125V110.923ZM309.154 135.095V114.217H308.117V135.095H309.154Z" stroke="#FF4FCE" stroke-width="2.55007" mask="url(#path-13-outside-1_1_6705)"/>
<path d="M323 118.129H315.656L318.37 110.923H335.413L326.153 131.183H334.894L332.22 138.389H313.74L323 118.129ZM330.144 135.095L330.544 134.106H320.845L329.945 114.217H320.446L320.086 115.206H328.308L319.208 135.095H330.144Z" stroke="#FF4FCE" stroke-width="2.55007" mask="url(#path-13-outside-1_1_6705)"/>
<path d="M342.878 118.129H335.535L338.249 110.923H355.291L346.032 131.183H354.772L352.098 138.389H333.619L342.878 118.129ZM350.023 135.095L350.422 134.106H340.723L349.823 114.217H340.324L339.965 115.206H348.187L339.087 135.095H350.023Z" stroke="#FF4FCE" stroke-width="2.55007" mask="url(#path-13-outside-1_1_6705)"/>
</g>
<path d="M342.751 46.0025C338.793 46.5622 334.623 50.0275 332.247 52.2332L335.608 56.3519C339.29 53.6464 342.595 52.1599 343.569 55.0225C353.033 82.852 365.704 152.872 389.689 147.643C409.101 141.935 398.94 119.278 401.77 105.753C402.31 103.453 403.7 100.589 406.343 100.675C408.814 100.755 407.736 99.3477 406.945 98.9671C399.25 94.6531 389.653 93.2783 381.559 90.4928C379.011 89.6158 379.797 91.4181 380.402 92.7781C381.559 108.077 381.565 108.077 385.772 131.267C383.549 131.979 375.998 114.955 367.899 95.3909C366.491 96.2632 365.184 96.7243 363.741 96.5495C367.418 106.798 371.432 116.947 376.314 127.001L372.85 128.794C362.97 108.447 356.643 87.8894 349.656 67.1724L353.316 65.8563C353.823 67.36 354.321 68.8565 354.822 70.3558C355.49 69.7363 356.287 69.284 357.152 69.0342C354.012 61.2944 351.122 54.2218 348.846 48.9529C347.708 47.2507 345.051 45.9353 342.751 46.0025ZM329.469 55.0389C326.833 57.888 324.445 61.019 322.753 63.8213L324.362 65.779C326.085 64.5778 329.249 61.5494 332.533 58.7946L329.469 55.0389ZM358.694 72.8167C357.596 72.8167 356.748 73.693 356.748 74.8268C356.748 75.9605 357.596 76.8364 358.694 76.8364C359.792 76.8364 360.641 75.9605 360.641 74.8268C360.641 73.693 359.792 72.8167 358.694 72.8167ZM361.43 80.4022C360.332 80.4022 359.484 81.2783 359.484 82.4118C359.484 83.5456 360.332 84.4219 361.43 84.4219C362.528 84.4219 363.377 83.5456 363.377 82.4121C363.377 81.2783 362.529 80.4022 361.43 80.4022ZM364.424 88.5723C363.326 88.5723 362.477 89.4482 362.477 90.5818C362.477 91.7155 363.326 92.5914 364.424 92.5914C365.522 92.5914 366.371 91.7155 366.371 90.5818C366.371 89.448 365.522 88.5723 364.424 88.5723ZM387.565 118.484C385.758 118.484 384.335 119.953 384.335 121.819C384.335 123.684 385.758 125.153 387.565 125.153C389.371 125.153 390.794 123.684 390.794 121.819C390.794 119.953 389.371 118.484 387.565 118.484Z" fill="url(#paint3_linear_1_6705)"/>
<defs>
<filter id="filter0_d_1_6705" x="215.62" y="74.125" width="133.928" height="117.755" filterUnits="userSpaceOnUse" color-interpolation-filters="sRGB">
<feFlood flood-opacity="0" result="BackgroundImageFix"/>
<feColorMatrix in="SourceAlpha" type="matrix" values="0 0 0 0 0 0 0 0 0 0 0 0 0 0 0 0 0 0 127 0" result="hardAlpha"/>
<feOffset dy="5.10015"/>
<feGaussianBlur stdDeviation="7.65022"/>
<feComposite in2="hardAlpha" operator="out"/>
<feColorMatrix type="matrix" values="0 0 0 0 0 0 0 0 0 0 0 0 0 0 0 0 0 0 0.25 0"/>
<feBlend mode="normal" in2="BackgroundImageFix" result="effect1_dropShadow_1_6705"/>
<feBlend mode="normal" in="SourceGraphic" in2="effect1_dropShadow_1_6705" result="shape"/>
</filter>
<filter id="filter1_d_1_6705" x="299.378" y="85.8669" width="59.8109" height="24.6593" filterUnits="userSpaceOnUse" color-interpolation-filters="sRGB">
<feFlood flood-opacity="0" result="BackgroundImageFix"/>
<feColorMatrix in="SourceAlpha" type="matrix" values="0 0 0 0 0 0 0 0 0 0 0 0 0 0 0 0 0 0 127 0" result="hardAlpha"/>
<feOffset/>
<feGaussianBlur stdDeviation="1.91255"/>
<feColorMatrix type="matrix" values="0 0 0 0 0.8898 0 0 0 0 0.39 0 0 0 0 0.9 0 0 0 1 0"/>
<feBlend mode="normal" in2="BackgroundImageFix" result="effect1_dropShadow_1_6705"/>
<feBlend mode="normal" in="SourceGraphic" in2="effect1_dropShadow_1_6705" result="shape"/>
</filter>
<filter id="filter2_d_1_6705" x="245.523" y="106.439" width="114.303" height="36.4748" filterUnits="userSpaceOnUse" color-interpolation-filters="sRGB">
<feFlood flood-opacity="0" result="BackgroundImageFix"/>
<feColorMatrix in="SourceAlpha" type="matrix" values="0 0 0 0 0 0 0 0 0 0 0 0 0 0 0 0 0 0 127 0" result="hardAlpha"/>
<feOffset/>
<feGaussianBlur stdDeviation="1.27504"/>
<feColorMatrix type="matrix" values="0 0 0 0 1 0 0 0 0 0.620833 0 0 0 0 0.893833 0 0 0 1 0"/>
<feBlend mode="normal" in2="BackgroundImageFix" result="effect1_dropShadow_1_6705"/>
<feBlend mode="normal" in="SourceGraphic" in2="effect1_dropShadow_1_6705" result="shape"/>
</filter>
<linearGradient id="paint0_linear_1_6705" x1="338.5" y1="1067.35" x2="626.099" y2="498.294" gradientUnits="userSpaceOnUse">
<stop stop-color="#8724C9"/>
<stop offset="1" stop-color="#160055"/>
</linearGradient>
<linearGradient id="paint1_linear_1_6705" x1="291.583" y1="98.069" x2="190.286" y2="101.189" gradientUnits="userSpaceOnUse">
<stop stop-color="#00168A"/>
<stop offset="1" stop-color="#FA2FFE"/>
</linearGradient>
<linearGradient id="paint2_linear_1_6705" x1="317.415" y1="69.9319" x2="295.5" y2="141.449" gradientUnits="userSpaceOnUse">
<stop stop-color="#C7F466"/>
<stop offset="1" stop-color="#00FFD1"/>
</linearGradient>
<linearGradient id="paint3_linear_1_6705" x1="365.313" y1="46" x2="365.313" y2="147.921" gradientUnits="userSpaceOnUse">
<stop stop-color="#E363E6"/>
<stop offset="1" stop-color="#8724C9"/>
</linearGradient>
</defs>
</svg>
