<svg width="636" height="792" viewBox="0 0 636 792" fill="none" xmlns="http://www.w3.org/2000/svg">
<rect x="1.5" y="1.5" width="633" height="789" rx="39.5" fill="url(#paint0_linear_1_6705)" stroke="#00FFD1" stroke-width="3"/>
<path d="M163 96C163 102.861 159.266 109 154 109C159.266 109 163 115.139 163 122C163 115.139 166.734 109 172 109C166.734 109 163 102.861 163 96Z" fill="#E363E6"/>
<path opacity="0.5" d="M80 36C80 51.3062 71.7023 65 60 65C71.7023 65 80 78.6948 80 94C80 78.6948 88.2977 65 100 65C88.2977 65 80 51.3062 80 36Z" fill="#00FFD1"/>
<path opacity="0.5" d="M574 80C574 92.1394 567.362 103 558 103C567.362 103 574 113.861 574 126C574 113.861 580.638 103 590 103C580.638 103 574 92.1394 574 80Z" fill="#1E1DD2"/>
<path opacity="0.5" d="M48 122C48 134.139 41.3618 145 32 145C41.3618 145 48 155.861 48 168C48 155.861 54.6382 145 64 145C54.6382 145 48 134.139 48 122Z" fill="#1E1DD2"/>
<path opacity="0.5" d="M549 134C549 140.861 545.266 147 540 147C545.266 147 549 153.139 549 160C549 153.139 552.734 147 558 147C552.734 147 549 140.861 549 134Z" fill="#E363E6"/>
<path opacity="0.5" d="M468 68C468 74.8614 464.266 81 459 81C464.266 81 468 87.139 468 94C468 87.139 471.734 81 477 81C471.734 81 468 74.8614 468 68Z" fill="#C7F466"/>
<path d="M231.67 103.316C229.832 100.27 231.544 96.239 234.989 95.5002L286.59 84.4352C288.238 84.0817 289.94 84.5933 291.126 85.7992L332.78 128.156C335.073 130.488 334.617 134.432 331.849 136.214L278.287 170.68C275.918 172.204 272.818 171.485 271.363 169.073L231.67 103.316Z" fill="url(#paint1_linear_1_6705)"/>
<path d="M297.896 75.7034C298.573 73.1068 301.142 71.4698 303.775 71.9567L349.325 80.3789C351.622 80.8038 353.331 82.7386 353.469 85.0731L356.417 134.686C356.579 137.41 354.569 139.787 351.856 140.08L286.378 147.165C282.836 147.549 280.015 144.275 280.915 140.824L297.896 75.7034Z" fill="url(#paint2_linear_1_6705)"/>
<path d="M303.203 102.621H305.065C305.609 102.621 305.974 102.519 306.161 102.315C306.348 102.111 306.442 101.822 306.442 101.448V89.6921H312.026V102.391C312.026 103.973 311.661 105.086 310.93 105.732C310.216 106.378 309.068 106.701 307.487 106.701H303.203V102.621Z" fill="black"/>
<path d="M318.807 89.6921H322.887L329.339 106.701H323.984L323.423 105.171H318.272L317.711 106.701H312.355L318.807 89.6921ZM321.995 101.422L320.847 98.4389L319.7 101.422H321.995Z" fill="black"/>
<path d="M334.235 94.1547H329.542L331.276 89.6921H342.165L336.249 102.238H341.834L340.125 106.701H328.318L334.235 94.1547Z" fill="black"/>
<path d="M347.433 94.1547H342.741L344.475 89.6921H355.364L349.448 102.238H355.032L353.324 106.701H341.517L347.433 94.1547Z" fill="black"/>
<path fill-rule="evenodd" clip-rule="evenodd" d="M301.928 101.346H305.065C305.102 101.346 305.136 101.345 305.167 101.344V88.4171H313.301V100.612L317.927 88.4171H323.767L329.011 102.242L332.224 95.4298H327.679L330.404 88.4171H357.375L351.459 100.963H356.886L354.201 107.976H323.093L322.532 106.446H319.162L318.601 107.976H310.508L310.739 107.368C309.812 107.806 308.693 107.976 307.487 107.976H301.928V101.346ZM312.355 106.701L318.807 89.6921H322.887L328.884 105.502L334.235 94.1547H329.542L331.276 89.6921H342.165L336.249 102.238H341.834L340.125 106.701H323.984L323.423 105.171H318.272L317.711 106.701H312.355ZM341.517 106.701L347.433 94.1547H342.741L344.475 89.6921H355.364L349.448 102.238H355.032L353.324 106.701H341.517ZM345.422 95.4298L342.813 100.963H338.26L340.916 95.3299L340.878 95.4298H345.422ZM310.93 105.732C311.661 105.086 312.026 103.973 312.026 102.391V89.6921H306.442V101.448C306.442 101.822 306.348 102.111 306.161 102.315C305.974 102.519 305.609 102.621 305.065 102.621H303.203V106.701H307.487C309.068 106.701 310.216 106.378 310.93 105.732ZM320.847 98.4389L319.7 101.422H321.995L320.847 98.4389Z" fill="#FF4FCE"/>
<path d="M257.137 123.828C257.137 124.628 257.284 125.387 257.578 126.104C257.872 126.794 258.273 127.401 258.78 127.925C259.288 128.45 259.876 128.863 260.544 129.167C261.239 129.471 261.974 129.622 262.749 129.622C263.524 129.622 264.246 129.471 264.914 129.167C265.609 128.863 266.21 128.45 266.718 127.925C267.225 127.401 267.626 126.794 267.92 126.104C268.214 125.387 268.361 124.628 268.361 123.828C268.361 123.028 268.214 122.283 267.92 121.593C267.626 120.875 267.225 120.255 266.718 119.73C266.21 119.206 265.609 118.792 264.914 118.489C264.246 118.185 263.524 118.033 262.749 118.033C261.974 118.033 261.239 118.185 260.544 118.489C259.876 118.792 259.288 119.206 258.78 119.73C258.273 120.255 257.872 120.875 257.578 121.593C257.284 122.283 257.137 123.028 257.137 123.828ZM262.749 133.347C261.466 133.347 260.264 133.099 259.141 132.602C258.046 132.106 257.07 131.43 256.215 130.574C255.386 129.691 254.732 128.684 254.251 127.553C253.77 126.394 253.529 125.152 253.529 123.828C253.529 122.503 253.77 121.275 254.251 120.144C254.732 118.985 255.386 117.978 256.215 117.123C257.07 116.24 258.046 115.55 259.141 115.053C260.264 114.557 261.466 114.308 262.749 114.308C264.032 114.308 265.221 114.557 266.317 115.053C267.439 115.55 268.415 116.24 269.243 117.123C270.098 117.978 270.766 118.985 271.247 120.144C271.728 121.275 271.969 122.503 271.969 123.828C271.969 125.152 271.728 126.394 271.247 127.553C270.766 128.684 270.098 129.691 269.243 130.574C268.415 131.43 267.439 132.106 266.317 132.602C265.221 133.099 264.032 133.347 262.749 133.347ZM248.719 123.828C248.719 121.841 249.079 119.965 249.801 118.199C250.549 116.433 251.552 114.902 252.808 113.605C254.09 112.28 255.587 111.245 257.297 110.5C259.008 109.728 260.825 109.342 262.749 109.342C264.673 109.342 266.49 109.728 268.201 110.5C269.911 111.245 271.394 112.28 272.65 113.605C273.933 114.902 274.935 116.433 275.657 118.199C276.405 119.965 276.779 121.841 276.779 123.828C276.779 125.014 276.646 126.159 276.378 127.263C276.111 128.367 275.737 129.402 275.256 130.367H277.741L274.134 137.61H267.038C265.622 138.079 264.192 138.314 262.749 138.314C260.825 138.314 259.008 137.941 257.297 137.196C255.587 136.424 254.09 135.389 252.808 134.092C251.552 132.768 250.549 131.223 249.801 129.457C249.079 127.691 248.719 125.814 248.719 123.828ZM267.078 133.43C267.96 133.016 268.762 132.478 269.484 131.816C270.205 131.154 270.82 130.409 271.328 129.581C271.862 128.753 272.276 127.856 272.57 126.891C272.864 125.897 273.011 124.876 273.011 123.828C273.011 122.365 272.744 121 272.209 119.73C271.675 118.433 270.94 117.302 270.005 116.336C269.069 115.371 267.974 114.612 266.718 114.06C265.488 113.508 264.165 113.232 262.749 113.232C261.333 113.232 259.996 113.508 258.74 114.06C257.511 114.612 256.429 115.371 255.493 116.336C254.558 117.302 253.823 118.433 253.289 119.73C252.754 121 252.487 122.365 252.487 123.828C252.487 125.29 252.754 126.67 253.289 127.967C253.823 129.236 254.558 130.353 255.493 131.319C256.429 132.285 257.524 133.044 258.78 133.596C260.063 134.147 261.44 134.423 262.909 134.423H273.131L273.613 133.43H267.078Z" fill="black"/>
<path d="M289.937 138.314C288.254 138.314 286.73 138.093 285.367 137.652C284.004 137.21 282.842 136.548 281.88 135.665C280.918 134.782 280.169 133.665 279.635 132.313C279.127 130.961 278.873 129.374 278.873 127.553V110.004H287.412V127.18C287.412 128.146 287.599 128.891 287.973 129.415C288.374 129.912 289.029 130.16 289.937 130.16C290.846 130.16 291.487 129.912 291.861 129.415C292.262 128.891 292.463 128.146 292.463 127.18V110.004H301.041V127.553C301.041 129.374 300.774 130.961 300.239 132.313C299.732 133.665 298.983 134.782 297.995 135.665C297.032 136.548 295.87 137.21 294.507 137.652C293.144 138.093 291.621 138.314 289.937 138.314ZM289.937 133.347C285.929 133.347 283.924 131.319 283.924 127.263V113.315H282.882V127.263C282.882 129.581 283.483 131.361 284.686 132.602C285.915 133.816 287.666 134.423 289.937 134.423C292.209 134.423 293.959 133.816 295.189 132.602C296.418 131.361 297.032 129.581 297.032 127.263V113.315H295.95V127.263C295.95 131.319 293.946 133.347 289.937 133.347Z" fill="black"/>
<path d="M303.734 110.004H312.794V137.61H303.734V110.004ZM308.785 134.299V113.315H307.743V134.299H308.785Z" fill="black"/>
<path d="M322.691 117.247H315.315L318.041 110.004H335.158L325.858 130.367H334.637L331.951 137.61H313.391L322.691 117.247ZM329.867 134.299L330.268 133.306H320.527L329.666 113.315H320.126L319.765 114.308H328.023L318.883 134.299H329.867Z" fill="black"/>
<path d="M342.656 117.247H335.28L338.006 110.004H355.123L345.823 130.367H354.602L351.916 137.61H333.356L342.656 117.247ZM349.832 134.299L350.233 133.306H340.492L349.631 113.315H340.091L339.73 114.308H347.988L338.848 134.299H349.832Z" fill="black"/>
<path fill-rule="evenodd" clip-rule="evenodd" d="M264.954 128.824L264.963 128.82C265.508 128.582 265.968 128.263 266.353 127.866C266.745 127.461 267.057 126.992 267.29 126.449C267.515 125.896 267.63 125.309 267.63 124.677C267.63 124.041 267.514 123.471 267.293 122.953L267.29 122.945L267.286 122.937C267.051 122.364 266.739 121.885 266.353 121.487C265.968 121.09 265.508 120.771 264.963 120.533L264.954 120.529L264.946 120.526C264.455 120.303 263.918 120.187 263.317 120.187C262.721 120.187 262.166 120.302 261.641 120.529C261.124 120.765 260.673 121.083 260.282 121.487C259.896 121.885 259.583 122.364 259.348 122.937L259.345 122.945L259.342 122.953C259.121 123.471 259.005 124.041 259.005 124.677C259.005 125.309 259.12 125.896 259.345 126.449C259.578 126.992 259.89 127.461 260.282 127.866C260.673 128.27 261.124 128.588 261.641 128.824C262.166 129.051 262.721 129.166 263.317 129.166C263.918 129.166 264.455 129.05 264.946 128.827L264.954 128.824ZM261.122 129.989C260.457 129.687 259.872 129.275 259.366 128.753C258.861 128.232 258.461 127.628 258.169 126.941C257.876 126.228 257.73 125.473 257.73 124.677C257.73 123.88 257.876 123.139 258.169 122.453C258.461 121.739 258.861 121.122 259.366 120.6C259.872 120.078 260.457 119.667 261.122 119.365C261.814 119.063 262.546 118.912 263.317 118.912C264.089 118.912 264.808 119.063 265.473 119.365C266.165 119.667 266.763 120.078 267.269 120.6C267.774 121.122 268.173 121.739 268.466 122.453C268.759 123.139 268.905 123.88 268.905 124.677C268.905 125.473 268.759 126.228 268.466 126.941C268.173 127.628 267.774 128.232 267.269 128.753C266.763 129.275 266.165 129.687 265.473 129.989C264.808 130.29 264.089 130.441 263.317 130.441C262.546 130.441 261.814 130.29 261.122 129.989ZM253.893 120.612C253.364 121.871 253.1 123.226 253.1 124.677C253.1 126.127 253.364 127.496 253.893 128.783C253.894 128.785 253.895 128.788 253.897 128.791L253.898 128.794C254.424 130.042 255.144 131.142 256.059 132.095C256.067 132.103 256.075 132.111 256.082 132.118C256.086 132.122 256.09 132.126 256.093 132.13C257.006 133.072 258.073 133.816 259.292 134.362C259.295 134.363 259.298 134.364 259.301 134.366C259.323 134.375 259.344 134.385 259.366 134.395C260.597 134.924 261.914 135.198 263.317 135.217C263.371 135.218 263.424 135.218 263.477 135.218H273.655L274.134 134.23H267.628C267.819 134.14 268.007 134.045 268.191 133.943C268.704 133.659 269.188 133.33 269.643 132.955C269.772 132.848 269.898 132.738 270.023 132.624C270.201 132.461 270.372 132.292 270.537 132.119C271.038 131.593 271.478 131.02 271.859 130.4C272.19 129.887 272.476 129.347 272.714 128.781C272.715 128.778 272.716 128.775 272.718 128.772C272.861 128.432 272.987 128.083 273.096 127.724C273.389 126.735 273.535 125.72 273.535 124.677C273.535 123.226 273.271 121.871 272.742 120.612C272.741 120.609 272.74 120.606 272.738 120.603L272.737 120.6C272.211 119.326 271.492 118.213 270.577 117.26C270.569 117.252 270.561 117.244 270.553 117.235C270.549 117.231 270.546 117.227 270.542 117.223C269.62 116.273 268.543 115.524 267.309 114.976C267.306 114.975 267.303 114.974 267.3 114.973C267.29 114.968 267.279 114.963 267.269 114.959C266.045 114.41 264.728 114.135 263.317 114.135C261.907 114.135 260.577 114.41 259.326 114.959C259.316 114.963 259.305 114.968 259.295 114.973C259.292 114.974 259.289 114.975 259.286 114.977C258.079 115.524 257.014 116.273 256.093 117.223C256.079 117.238 256.065 117.253 256.05 117.268C255.139 118.219 254.422 119.33 253.898 120.6L253.897 120.603C253.895 120.606 253.894 120.609 253.893 120.612ZM254.856 121.012C254.377 122.137 254.137 123.359 254.137 124.677C254.137 125.994 254.377 127.23 254.856 128.383C254.857 128.385 254.858 128.387 254.859 128.389C254.86 128.392 254.861 128.394 254.862 128.397C255.34 129.517 255.99 130.514 256.812 131.389C256.819 131.396 256.827 131.404 256.834 131.411C257.68 132.252 258.644 132.917 259.725 133.406C259.744 133.414 259.762 133.422 259.781 133.43C259.783 133.432 259.785 133.433 259.788 133.434C260.888 133.91 262.064 134.147 263.317 134.147C263.371 134.147 263.424 134.147 263.477 134.146C264.091 134.136 264.682 134.069 265.253 133.943C265.813 133.82 266.352 133.641 266.87 133.406C266.958 133.367 267.046 133.327 267.133 133.285C267.147 133.278 267.161 133.272 267.175 133.265C267.329 133.191 267.48 133.113 267.628 133.031C267.674 133.006 267.719 132.981 267.764 132.955C268.321 132.636 268.836 132.266 269.308 131.845C269.472 131.699 269.63 131.547 269.783 131.389C270.24 130.917 270.643 130.411 270.993 129.869C270.997 129.862 271.001 129.855 271.005 129.849C271.302 129.386 271.56 128.897 271.779 128.383C271.908 128.072 272.02 127.755 272.114 127.433C272.115 127.43 272.115 127.428 272.116 127.425C272.37 126.553 272.497 125.636 272.497 124.677C272.497 123.359 272.258 122.137 271.779 121.012C271.778 121.009 271.777 121.007 271.776 121.005C271.775 121.002 271.774 121 271.773 120.997C271.295 119.85 270.631 118.853 269.783 118.006C269.776 117.997 269.768 117.989 269.76 117.981C268.94 117.114 267.977 116.436 266.87 115.947C266.86 115.942 266.85 115.938 266.841 115.934C266.838 115.933 266.836 115.931 266.833 115.93C265.752 115.447 264.58 115.206 263.317 115.206C262.054 115.206 260.869 115.447 259.762 115.931C259.76 115.932 259.757 115.933 259.754 115.934C259.745 115.938 259.735 115.943 259.725 115.947C258.653 116.433 257.696 117.104 256.855 117.961C256.84 117.976 256.826 117.991 256.812 118.006C255.99 118.853 255.34 119.85 254.862 120.997C254.861 121 254.86 121.002 254.859 121.005C254.858 121.007 254.857 121.009 254.856 121.012ZM278.245 131.183L274.653 138.389H267.588C266.178 138.856 264.754 139.089 263.317 139.089C261.402 139.089 259.592 138.718 257.889 137.977C256.186 137.208 254.696 136.179 253.419 134.889C252.168 133.571 251.171 132.034 250.426 130.277C249.707 128.52 249.348 126.653 249.348 124.677C249.348 122.7 249.707 120.833 250.426 119.076C251.171 117.319 252.168 115.796 253.419 114.506C254.696 113.188 256.186 112.158 257.889 111.417C259.592 110.649 261.402 110.264 263.317 110.264C265.233 110.264 267.043 110.649 268.746 111.417C270.449 112.158 271.925 113.188 273.176 114.506C274.453 115.796 275.451 117.319 276.169 119.076C276.914 120.833 277.287 122.7 277.287 124.677C277.287 125.857 277.154 126.996 276.888 128.094C276.736 128.721 276.549 129.326 276.328 129.908C276.162 130.345 275.976 130.77 275.77 131.183H278.245ZM277.684 129.908C277.841 129.455 277.978 128.991 278.097 128.516C278.1 128.992 278.12 129.456 278.157 129.908H277.684ZM279.436 129.908C279.478 130.383 279.54 130.839 279.623 131.277C279.746 131.933 279.915 132.546 280.13 133.118C280.662 134.463 281.407 135.575 282.365 136.453C283.323 137.332 284.481 137.991 285.838 138.43C287.195 138.869 288.711 139.089 290.388 139.089C292.064 139.089 293.581 138.869 294.938 138.43C296.295 137.991 297.452 137.332 298.41 136.453C299.395 135.575 300.14 134.463 300.645 133.118C301.177 131.773 301.444 130.194 301.444 128.383V110.923H292.902V128.012C292.902 128.973 292.703 129.714 292.303 130.236C291.931 130.73 291.292 130.977 290.388 130.977C289.483 130.977 288.831 130.73 288.432 130.236C288.059 129.714 287.873 128.973 287.873 128.012V110.923H279.372V128.383C279.372 128.911 279.393 129.419 279.436 129.908ZM289.445 129.459C289.531 129.548 289.758 129.702 290.388 129.702C291.086 129.702 291.25 129.515 291.285 129.468L291.291 129.461C291.457 129.244 291.627 128.817 291.627 128.012V109.648H302.719V128.383C302.719 130.312 302.436 132.052 301.835 133.577C301.265 135.09 300.411 136.375 299.266 137.399C298.161 138.41 296.842 139.154 295.33 139.643C293.827 140.13 292.175 140.364 290.388 140.364C288.601 140.364 286.949 140.13 285.445 139.643C283.931 139.153 282.609 138.407 281.503 137.393C280.388 136.37 279.539 135.091 278.944 133.587L278.94 133.577L278.937 133.567C278.87 133.39 278.808 133.21 278.75 133.028L275.442 139.664H267.789C266.319 140.129 264.827 140.364 263.317 140.364C261.232 140.364 259.249 139.959 257.38 139.146L257.373 139.143L257.365 139.139C255.524 138.308 253.903 137.19 252.513 135.786L252.503 135.776L252.494 135.766C251.133 134.332 250.053 132.665 249.252 130.775L249.249 130.767L249.245 130.759C248.462 128.843 248.073 126.812 248.073 124.677C248.073 122.541 248.462 120.51 249.245 118.594L249.249 118.586L249.252 118.579C250.054 116.686 251.137 115.028 252.504 113.618C253.896 112.181 255.522 111.058 257.373 110.252C259.242 109.409 261.228 108.989 263.317 108.989C265.407 108.989 267.393 109.409 269.262 110.252C271.111 111.057 272.724 112.18 274.091 113.618C275.485 115.029 276.57 116.689 277.346 118.586C277.656 119.317 277.906 120.064 278.097 120.827V109.648H289.148V128.012C289.148 128.79 289.295 129.226 289.445 129.459ZM302.85 109.648H314.42V117.792L317.488 109.648H357.276L348.016 129.908H356.605L352.985 139.664H302.85V109.648ZM313.145 138.389V110.923H304.125V138.389H313.145ZM313.74 138.389H332.22L334.894 131.183H326.153L335.413 110.923H318.37L315.656 118.129H323L313.74 138.389ZM321.015 119.404L314.42 133.833V119.404H321.015ZM328.138 129.908H336.093L340.894 119.404H333.692L337.22 110.037L328.138 129.908ZM342.878 118.129L333.619 138.389H352.098L354.772 131.183H346.031L355.291 110.923H338.248L335.534 118.129H342.878ZM328.308 115.206L319.208 135.095H330.144L330.543 134.106H320.845L329.945 114.217H320.445L320.086 115.206H328.308ZM348.187 115.206L339.087 135.095H350.023L350.422 134.106H340.723L349.823 114.217H340.324L339.965 115.206H348.187ZM283.363 114.217V128.094C283.363 130.4 283.962 132.171 285.159 133.406C286.383 134.614 288.126 135.218 290.388 135.218C292.649 135.218 294.392 134.614 295.616 133.406C296.84 132.171 297.452 130.4 297.452 128.094V114.217H296.375V128.094C296.375 130.12 295.872 131.637 294.866 132.646C294.863 132.649 294.86 132.652 294.858 132.655C293.86 133.65 292.37 134.147 290.388 134.147C288.411 134.147 286.924 133.653 285.926 132.663C285.92 132.657 285.915 132.652 285.909 132.646C284.904 131.637 284.401 130.12 284.401 128.094V114.217H283.363ZM308.116 114.217V135.095H309.154V114.217H308.116Z" fill="#FF4FCE"/>
<path d="M342.751 46.0025C338.793 46.5622 334.623 50.0275 332.247 52.2332L335.608 56.3519C339.29 53.6464 342.595 52.1599 343.569 55.0225C353.033 82.852 365.704 152.872 389.689 147.643C409.101 141.935 398.94 119.278 401.77 105.753C402.31 103.453 403.7 100.589 406.343 100.675C408.814 100.755 407.736 99.3477 406.945 98.9671C399.25 94.6531 389.653 93.2783 381.559 90.4928C379.011 89.6158 379.797 91.4181 380.402 92.7781C381.559 108.077 381.565 108.077 385.772 131.267C383.549 131.979 375.998 114.955 367.899 95.3909C366.491 96.2632 365.184 96.7243 363.741 96.5495C367.418 106.798 371.432 116.947 376.314 127.001L372.85 128.794C362.97 108.447 356.643 87.8894 349.656 67.1724L353.316 65.8563C353.823 67.36 354.321 68.8565 354.822 70.3558C355.49 69.7363 356.287 69.284 357.152 69.0342C354.011 61.2944 351.122 54.2218 348.846 48.9529C347.708 47.2507 345.051 45.9353 342.751 46.0025ZM329.469 55.0389C326.833 57.888 324.445 61.019 322.753 63.8213L324.362 65.7789C326.085 64.5778 329.249 61.5494 332.533 58.7946L329.469 55.0389ZM358.694 72.8167C357.596 72.8167 356.748 73.693 356.748 74.8268C356.748 75.9605 357.596 76.8364 358.694 76.8364C359.792 76.8364 360.641 75.9605 360.641 74.8268C360.641 73.693 359.792 72.8167 358.694 72.8167ZM361.43 80.4022C360.332 80.4022 359.484 81.2783 359.484 82.4118C359.484 83.5456 360.332 84.4219 361.43 84.4219C362.528 84.4219 363.377 83.5456 363.377 82.412C363.377 81.2783 362.528 80.4022 361.43 80.4022ZM364.424 88.5723C363.326 88.5723 362.477 89.4482 362.477 90.5818C362.477 91.7155 363.326 92.5914 364.424 92.5914C365.522 92.5914 366.371 91.7155 366.371 90.5818C366.371 89.448 365.522 88.5723 364.424 88.5723Z" fill="url(#paint3_linear_1_6705)"/>
<defs>
<linearGradient id="paint0_linear_1_6705" x1="338.5" y1="1067.35" x2="626.099" y2="498.294" gradientUnits="userSpaceOnUse">
<stop stop-color="#8724C9"/>
<stop offset="1" stop-color="#160055"/>
</linearGradient>
<linearGradient id="paint1_linear_1_6705" x1="360.293" y1="93.7679" x2="211.415" y2="-47.5982" gradientUnits="userSpaceOnUse">
<stop stop-color="#00168A"/>
<stop offset="1" stop-color="#FA2FFE"/>
</linearGradient>
<linearGradient id="paint2_linear_1_6705" x1="326.153" y1="44.3" x2="291.738" y2="170.017" gradientUnits="userSpaceOnUse">
<stop stop-color="#C7F466"/>
<stop offset="1" stop-color="#00FFD1"/>
</linearGradient>
<linearGradient id="paint3_linear_1_6705" x1="365.314" y1="46" x2="365.314" y2="147.921" gradientUnits="userSpaceOnUse">
<stop stop-color="#E363E6"/>
<stop offset="1" stop-color="#8724C9"/>
</linearGradient>
</defs>
</svg>
