<svg width="178" height="127" viewBox="0 0 178 127" fill="none" xmlns="http://www.w3.org/2000/svg">
<path d="M1.67001 57.8401C-0.168368 54.7945 1.54351 50.7634 4.989 50.0246L56.5896 38.9597C58.2383 38.6061 59.9398 39.1178 61.1257 40.3236L102.78 82.6801C105.073 85.012 104.617 88.9568 101.849 90.7382L48.287 125.204C45.9183 126.729 42.8181 126.009 41.3625 123.598L1.67001 57.8401Z" fill="url(#paint0_linear_209_880)"/>
<path d="M67.8959 30.2278C68.573 27.6312 71.1416 25.9942 73.7749 26.4811L119.325 34.9034C121.622 35.3282 123.331 37.263 123.469 39.5975L126.417 89.2106C126.579 91.9342 124.569 94.3112 121.856 94.6047L56.3776 101.69C52.8355 102.073 50.0155 98.7992 50.9153 95.3483L67.8959 30.2278Z" fill="url(#paint1_linear_209_880)"/>
<path d="M73.2031 57.1454H75.0647C75.6087 57.1454 75.9742 57.0434 76.1612 56.8394C76.3482 56.6354 76.4417 56.3464 76.4417 55.9724V44.2165H82.0264V56.9159C82.0264 58.4969 81.6609 59.6105 80.9298 60.2565C80.2158 60.9025 79.0683 61.2255 77.4873 61.2255H73.2031V57.1454Z" fill="black"/>
<path d="M88.8072 44.2165H92.8873L99.339 61.2255H93.9838L93.4228 59.6955H88.2717L87.7107 61.2255H82.3555L88.8072 44.2165ZM91.9948 55.9468L90.8472 52.9633L89.6997 55.9468H91.9948Z" fill="black"/>
<path d="M104.235 48.6791H99.5424L101.276 44.2165H112.165L106.249 56.7629H111.834L110.125 61.2255H98.3184L104.235 48.6791Z" fill="black"/>
<path d="M117.433 48.6791H112.741L114.475 44.2165H125.364L119.448 56.7629H125.032L123.324 61.2255H111.517L117.433 48.6791Z" fill="black"/>
<path fill-rule="evenodd" clip-rule="evenodd" d="M71.9281 55.8703H75.0647C75.1016 55.8703 75.1355 55.8697 75.1667 55.8685V42.9415H83.3014V55.1366L87.9271 42.9415H93.7673L99.0113 56.7665L102.224 49.9542H97.679L100.404 42.9415H127.375L121.459 55.4878H126.886L124.201 62.5005H93.0933L92.5323 60.9705H89.1622L88.6012 62.5005H80.5082L80.7387 61.8927C79.8123 62.3306 78.6934 62.5005 77.4873 62.5005H71.9281V55.8703ZM82.3555 61.2255L88.8072 44.2165H92.8873L98.884 60.026L104.235 48.6791H99.5424L101.276 44.2165H112.165L106.249 56.7629H111.834L110.125 61.2255H93.9838L93.4228 59.6955H88.2717L87.7107 61.2255H82.3555ZM111.517 61.2255L117.433 48.6791H112.741L114.475 44.2165H125.364L119.448 56.7629H125.032L123.324 61.2255H111.517ZM115.422 49.9542L112.813 55.4878H108.26L110.916 49.8543L110.878 49.9542H115.422ZM80.9298 60.2565C81.6609 59.6105 82.0264 58.4969 82.0264 56.9159V44.2165H76.4417V55.9724C76.4417 56.3464 76.3482 56.6354 76.1612 56.8394C75.9742 57.0434 75.6087 57.1454 75.0647 57.1454H73.2031V61.2255H77.4873C79.0683 61.2255 80.2158 60.9025 80.9298 60.2565ZM90.8472 52.9633L89.6997 55.9468H91.9948L90.8472 52.9633Z" fill="#FF4FCE"/>
<path d="M27.1369 78.3522C27.1369 79.1524 27.2839 79.9112 27.5779 80.6286C27.8718 81.3184 28.2727 81.9255 28.7805 82.4497C29.2882 82.974 29.8762 83.3879 30.5443 83.6914C31.2391 83.9949 31.974 84.1467 32.749 84.1467C33.524 84.1467 34.2456 83.9949 34.9137 83.6914C35.6085 83.3879 36.2099 82.974 36.7176 82.4497C37.2254 81.9255 37.6262 81.3184 37.9202 80.6286C38.2142 79.9112 38.3612 79.1524 38.3612 78.3522C38.3612 77.552 38.2142 76.807 37.9202 76.1172C37.6262 75.3998 37.2254 74.7789 36.7176 74.2547C36.2099 73.7304 35.6085 73.3165 34.9137 73.013C34.2456 72.7095 33.524 72.5577 32.749 72.5577C31.974 72.5577 31.2391 72.7095 30.5443 73.013C29.8762 73.3165 29.2882 73.7304 28.7805 74.2547C28.2727 74.7789 27.8718 75.3998 27.5779 76.1172C27.2839 76.807 27.1369 77.552 27.1369 78.3522ZM32.749 87.8717C31.4663 87.8717 30.2637 87.6234 29.1412 87.1267C28.0455 86.63 27.0701 85.954 26.2149 85.0986C25.3865 84.2157 24.7317 83.2085 24.2507 82.0772C23.7696 80.9183 23.5291 79.6766 23.5291 78.3522C23.5291 77.0277 23.7696 75.7999 24.2507 74.6686C24.7317 73.5097 25.3865 72.5025 26.2149 71.6471C27.0701 70.7642 28.0455 70.0744 29.1412 69.5777C30.2637 69.081 31.4663 68.8327 32.749 68.8327C34.0318 68.8327 35.221 69.081 36.3167 69.5777C37.4392 70.0744 38.4146 70.7642 39.2431 71.6471C40.0982 72.5025 40.7664 73.5097 41.2474 74.6686C41.7284 75.7999 41.969 77.0277 41.969 78.3522C41.969 79.6766 41.7284 80.9183 41.2474 82.0772C40.7664 83.2085 40.0982 84.2157 39.2431 85.0986C38.4146 85.954 37.4392 86.63 36.3167 87.1267C35.221 87.6234 34.0318 87.8717 32.749 87.8717ZM18.7187 78.3522C18.7187 76.3655 19.0795 74.4892 19.8011 72.7233C20.5493 70.9573 21.5515 69.4259 22.8076 68.1291C24.0903 66.8046 25.5869 65.7699 27.2973 65.0249C29.0076 64.2523 30.8249 63.866 32.749 63.866C34.6732 63.866 36.4905 64.2523 38.2008 65.0249C39.9112 65.7699 41.3944 66.8046 42.6504 68.1291C43.9332 69.4259 44.9354 70.9573 45.6569 72.7233C46.4052 74.4892 46.7794 76.3655 46.7794 78.3522C46.7794 79.5387 46.6457 80.6838 46.3785 81.7875C46.1112 82.8912 45.7371 83.9259 45.2561 84.8917H47.7414L44.1336 92.1348H37.0383C35.6219 92.6039 34.1922 92.8384 32.749 92.8384C30.8249 92.8384 29.0076 92.4659 27.2973 91.7209C25.5869 90.9483 24.0903 89.9136 22.8076 88.6167C21.5515 87.2923 20.5493 85.7471 19.8011 83.9811C19.0795 82.2152 18.7187 80.3389 18.7187 78.3522ZM37.0784 87.9545C37.9603 87.5406 38.762 87.0025 39.4836 86.3403C40.2051 85.6781 40.8198 84.9331 41.3276 84.1053C41.8621 83.2775 42.2763 82.3807 42.5703 81.415C42.8642 80.4217 43.0112 79.4007 43.0112 78.3522C43.0112 76.8898 42.744 75.5239 42.2095 74.2547C41.675 72.9578 40.9401 71.8265 40.0047 70.8608C39.0694 69.895 37.9737 69.1362 36.7176 68.5844C35.4883 68.0325 34.1654 67.7566 32.749 67.7566C31.3326 67.7566 29.9964 68.0325 28.7404 68.5844C27.5111 69.1362 26.4287 69.895 25.4934 70.8608C24.558 71.8265 23.8231 72.9578 23.2886 74.2547C22.7541 75.5239 22.4869 76.8898 22.4869 78.3522C22.4869 79.8146 22.7541 81.1943 23.2886 82.4911C23.8231 83.7604 24.558 84.8779 25.4934 85.8436C26.4287 86.8094 27.5244 87.5682 28.7805 88.12C30.0632 88.6719 31.4395 88.9478 32.9094 88.9478H43.1315L43.6125 87.9545H37.0784Z" fill="black"/>
<path d="M59.9372 92.8384C58.2535 92.8384 56.7302 92.6177 55.3673 92.1762C54.0043 91.7347 52.8418 91.0725 51.8798 90.1895C50.9177 89.3065 50.1694 88.189 49.6349 86.837C49.1271 85.4849 48.8733 83.8983 48.8733 82.0772V64.5282H57.4117V81.7047C57.4117 82.6705 57.5988 83.4155 57.9729 83.9397C58.3738 84.4364 59.0285 84.6847 59.9372 84.6847C60.8458 84.6847 61.4872 84.4364 61.8613 83.9397C62.2622 83.4155 62.4626 82.6705 62.4626 81.7047V64.5282H71.0412V82.0772C71.0412 83.8983 70.7739 85.4849 70.2394 86.837C69.7317 88.189 68.9834 89.3065 67.9946 90.1895C67.0325 91.0725 65.87 91.7347 64.507 92.1762C63.1441 92.6177 61.6208 92.8384 59.9372 92.8384ZM59.9372 87.8717C55.9285 87.8717 53.9242 85.8436 53.9242 81.7875V67.8393H52.8819V81.7875C52.8819 84.1053 53.4832 85.885 54.6858 87.1267C55.9151 88.3408 57.6656 88.9478 59.9372 88.9478C62.2087 88.9478 63.9592 88.3408 65.1885 87.1267C66.4178 85.885 67.0325 84.1053 67.0325 81.7875V67.8393H65.9502V81.7875C65.9502 85.8436 63.9458 87.8717 59.9372 87.8717Z" fill="black"/>
<path d="M73.7345 64.5282H82.7941V92.1348H73.7345V64.5282ZM78.7854 88.8237V67.8393H77.7431V88.8237H78.7854Z" fill="black"/>
<path d="M92.6914 71.7713H85.3154L88.0413 64.5282H105.158L95.8582 84.8917H104.637L101.951 92.1348H83.3913L92.6914 71.7713ZM99.8669 88.8237L100.268 87.8303H90.5267L99.6665 67.8393H90.1258L89.7651 68.8327H98.0229L88.8832 88.8237H99.8669Z" fill="black"/>
<path d="M112.656 71.7713H105.28L108.006 64.5282H125.123L115.823 84.8917H124.602L121.916 92.1348H103.356L112.656 71.7713ZM119.832 88.8237L120.233 87.8303H110.492L119.631 67.8393H110.091L109.73 68.8327H117.988L108.848 88.8237H119.832Z" fill="black"/>
<path fill-rule="evenodd" clip-rule="evenodd" d="M34.9541 83.3481L34.9627 83.3444C35.5084 83.1062 35.9678 82.7879 36.3533 82.3902C36.7451 81.9859 37.0572 81.5168 37.2899 80.9737C37.5154 80.4208 37.6302 79.8334 37.6302 79.201C37.6302 78.5651 37.5142 77.9953 37.2934 77.4775L37.2899 77.4694L37.2865 77.4611C37.0515 76.8881 36.739 76.4097 36.3533 76.0118C35.9678 75.6141 35.5084 75.2958 34.9627 75.0576L34.9541 75.0539L34.9457 75.05C34.4553 74.8274 33.9177 74.7111 33.3174 74.7111C32.7205 74.7111 32.1656 74.8262 31.6408 75.0539C31.1238 75.2898 30.6732 75.6078 30.2816 76.0118C29.8959 76.4097 29.5834 76.8881 29.3484 77.4611L29.345 77.4694L29.3415 77.4775C29.1207 77.9953 29.0047 78.5651 29.0047 79.201C29.0047 79.8334 29.1195 80.4209 29.345 80.9738C29.5777 81.5168 29.8898 81.9859 30.2816 82.3902C30.6732 82.7941 31.1238 83.1121 31.6408 83.3481C32.1656 83.5758 32.7205 83.6908 33.3174 83.6908C33.9177 83.6908 34.4553 83.5745 34.9457 83.3519L34.9541 83.3481ZM31.1222 84.5129C30.457 84.211 29.8716 83.7992 29.3661 83.2776C28.8605 82.756 28.4614 82.1521 28.1687 81.4658C27.876 80.752 27.7296 79.9971 27.7296 79.201C27.7296 78.4049 27.876 77.6637 28.1687 76.9774C28.4614 76.2636 28.8605 75.6459 29.3661 75.1243C29.8716 74.6028 30.457 74.191 31.1222 73.889C31.8141 73.587 32.5458 73.436 33.3174 73.436C34.0891 73.436 34.8075 73.587 35.4727 73.889C36.1645 74.191 36.7632 74.6028 37.2688 75.1243C37.7744 75.6459 38.1735 76.2636 38.4662 76.9774C38.7589 77.6637 38.9052 78.4049 38.9052 79.201C38.9052 79.9971 38.7589 80.752 38.4662 81.4658C38.1735 82.1521 37.7744 82.756 37.2688 83.2776C36.7632 83.7992 36.1645 84.211 35.4727 84.5129C34.8075 84.8149 34.0891 84.9659 33.3174 84.9659C32.5458 84.9659 31.8141 84.8149 31.1222 84.5129ZM23.8931 75.1361C23.3642 76.3956 23.0998 77.7505 23.0998 79.201C23.0998 80.6515 23.3642 82.0201 23.8931 83.3069C23.8943 83.3097 23.8954 83.3125 23.8966 83.3152L23.898 83.3188C24.4237 84.5663 25.1442 85.6664 26.0595 86.6192C26.0671 86.6271 26.0746 86.635 26.0822 86.6428C26.0859 86.6466 26.0895 86.6504 26.0932 86.6542C27.0062 87.5961 28.0726 88.3401 29.2924 88.8863C29.2953 88.8876 29.2982 88.8889 29.301 88.8902C29.3227 88.8998 29.3443 88.9094 29.3661 88.919C30.5967 89.448 31.9138 89.7222 33.3174 89.7414C33.3705 89.7422 33.4237 89.7425 33.4771 89.7425H43.6549L44.1338 88.7543H37.628C37.8193 88.6645 38.0069 88.569 38.1906 88.4675C38.7043 88.1839 39.1883 87.8545 39.6427 87.4792C39.7718 87.3726 39.8985 87.2623 40.0228 87.1483C40.2007 86.9851 40.3722 86.8169 40.5371 86.6436C41.0379 86.1172 41.4784 85.5443 41.8588 84.9247C42.1904 84.4115 42.4756 83.8715 42.7142 83.305C42.7154 83.3023 42.7165 83.2996 42.7176 83.2969C42.8605 82.9569 42.9867 82.6073 43.0961 82.2481C43.3888 81.2599 43.5351 80.2441 43.5351 79.201C43.5351 77.7505 43.2707 76.3956 42.7418 75.1361C42.7407 75.1334 42.7395 75.1306 42.7383 75.1279L42.7369 75.1243C42.2115 73.8506 41.4916 72.7373 40.5772 71.7846C40.5693 71.7763 40.5613 71.768 40.5533 71.7598C40.5494 71.7557 40.5455 71.7517 40.5417 71.7477C39.6204 70.7973 38.5429 70.0483 37.3092 69.5008C37.3063 69.4995 37.3034 69.4982 37.3005 69.4969C37.2899 69.4922 37.2794 69.4876 37.2688 69.483C36.0448 68.9339 34.7277 68.6594 33.3174 68.6594C31.9072 68.6594 30.5768 68.9339 29.3262 69.483C29.3156 69.4877 29.3051 69.4924 29.2946 69.4972C29.2917 69.4985 29.2888 69.4998 29.2859 69.5011C28.0785 70.0486 27.0143 70.7975 26.0932 71.7477C26.0789 71.7625 26.0646 71.7774 26.0504 71.7922C25.1394 72.7433 24.422 73.854 23.898 75.1243L23.8965 75.1279C23.8954 75.1306 23.8942 75.1334 23.8931 75.1361ZM24.8559 75.5361C24.377 76.6617 24.1375 77.8833 24.1375 79.201C24.1375 80.5187 24.377 81.754 24.8559 82.907C24.8569 82.9093 24.8579 82.9116 24.8588 82.9138C24.8599 82.9163 24.8609 82.9187 24.862 82.9212C25.3404 84.0409 25.9903 85.0382 26.8117 85.913C26.8192 85.9206 26.8269 85.9282 26.8345 85.9357C27.6805 86.776 28.6441 87.441 29.7253 87.9307C29.7437 87.9388 29.7621 87.9469 29.7805 87.9549C29.783 87.956 29.7854 87.957 29.7879 87.9581C30.8875 88.434 32.0641 88.6719 33.3174 88.6719C33.3708 88.6719 33.424 88.6715 33.4771 88.6706C34.0907 88.6606 34.6825 88.5929 35.2526 88.4675C35.8126 88.3443 36.3516 88.1653 36.8697 87.9307C36.9585 87.8914 37.0464 87.851 37.1334 87.8095C37.1474 87.8028 37.1615 87.796 37.1755 87.7893C37.3292 87.715 37.4801 87.6371 37.628 87.5557C37.6737 87.5305 37.7191 87.5051 37.7643 87.4792C38.3211 87.1607 38.8358 86.7906 39.3081 86.3691C39.4716 86.2232 39.63 86.0712 39.7833 85.913C40.24 85.4418 40.6431 84.9352 40.9926 84.393C40.9968 84.3864 41.0011 84.3798 41.0053 84.3732C41.3021 83.9103 41.56 83.4215 41.7789 82.907C41.908 82.5964 42.0196 82.2798 42.1139 81.9572C42.1146 81.9547 42.1154 81.9522 42.1161 81.9496C42.3703 81.0771 42.4974 80.1609 42.4974 79.201C42.4974 77.8833 42.2579 76.6617 41.7789 75.5361C41.778 75.5338 41.777 75.5315 41.7761 75.5292C41.7751 75.5268 41.774 75.5243 41.773 75.5219C41.2945 74.3749 40.6313 73.3776 39.7833 72.5301C39.7756 72.5219 39.7678 72.5136 39.76 72.5054C38.9402 71.6388 37.9767 70.9607 36.8697 70.4712C36.86 70.4669 36.8503 70.4625 36.8407 70.4582C36.8381 70.457 36.8355 70.4558 36.8329 70.4547C35.7521 69.9716 34.5803 69.73 33.3174 69.73C32.0543 69.73 30.8692 69.9717 29.7622 70.455C29.7596 70.4561 29.757 70.4573 29.7544 70.4584C29.7447 70.4627 29.735 70.4669 29.7253 70.4712C28.6527 70.957 27.6959 71.6286 26.8548 72.4859C26.8404 72.5006 26.826 72.5153 26.8117 72.5301C25.9902 73.3776 25.3403 74.3749 24.8619 75.5219C24.8608 75.5243 24.8598 75.5268 24.8588 75.5292C24.8578 75.5315 24.8569 75.5338 24.8559 75.5361ZM48.2448 85.7071L44.6527 92.9132H37.5881C36.1779 93.3799 34.7543 93.6133 33.3174 93.6133C31.4016 93.6133 29.5922 93.2427 27.8893 92.5015C26.1863 91.7328 24.6963 90.7034 23.4191 89.4131C22.1685 88.0954 21.1706 86.5581 20.4256 84.8012C19.7072 83.0442 19.348 81.1775 19.348 79.201C19.348 77.2244 19.7072 75.3577 20.4256 73.6008C21.1706 71.8438 22.1685 70.3202 23.4191 69.03C24.6963 67.7123 26.1863 66.6828 27.8893 65.9416C29.5922 65.173 31.4016 64.7887 33.3174 64.7887C35.2333 64.7887 37.0426 65.173 38.7456 65.9416C40.4485 66.6828 41.9253 67.7123 43.1759 69.03C44.4531 70.3202 45.4509 71.8438 46.1694 73.6008C46.9144 75.3577 47.2869 77.2244 47.2869 79.201C47.2869 80.3814 47.1539 81.5207 46.8878 82.6187C46.7359 83.2455 46.5493 83.85 46.3281 84.4321C46.1617 84.8697 45.9758 85.2947 45.7702 85.7071H48.2448ZM47.6843 84.4321C47.8409 83.9789 47.9785 83.5149 48.0971 83.0402C48.1002 83.516 48.1199 83.9801 48.1566 84.4321H47.6843ZM49.4362 84.4321C49.478 84.9072 49.5401 85.3637 49.6225 85.8013C49.7461 86.4572 49.9153 87.0709 50.1301 87.6425C50.6622 88.9876 51.4073 90.0994 52.3652 90.9779C53.3231 91.8563 54.4806 92.5152 55.8376 92.9544C57.1946 93.3937 58.7113 93.6133 60.3877 93.6133C62.064 93.6133 63.5807 93.3937 64.9377 92.9544C66.2948 92.5152 67.4522 91.8563 68.4101 90.9779C69.3947 90.0994 70.1397 88.9876 70.6452 87.6425C71.1774 86.2973 71.4435 84.7188 71.4435 82.907V65.4475H62.9022V82.5364C62.9022 83.4972 62.7026 84.2384 62.3035 84.76C61.931 85.2541 61.2924 85.5012 60.3877 85.5012C59.483 85.5012 58.8311 85.2541 58.4319 84.76C58.0594 84.2384 57.8732 83.4972 57.8732 82.5364V65.4475H49.3717V82.907C49.3717 83.4352 49.3932 83.9435 49.4362 84.4321ZM59.445 83.9829C59.531 84.0729 59.7583 84.2262 60.3877 84.2262C61.0856 84.2262 61.2503 84.039 61.2854 83.9924L61.2909 83.9851C61.457 83.7681 61.6271 83.3419 61.6271 82.5364V64.1725H72.7185V82.907C72.7185 84.836 72.4362 86.5768 71.8349 88.1013C71.2645 89.6145 70.4115 90.899 69.2656 91.9234C68.1613 92.9343 66.8415 93.6784 65.3304 94.1675C63.8265 94.6542 62.1746 94.8883 60.3877 94.8883C58.6008 94.8883 56.9488 94.6542 55.445 94.1675C53.9309 93.6774 52.6089 92.9314 51.5034 91.9176C50.388 90.8946 49.5395 89.6156 48.9445 88.1115L48.9404 88.1013L48.9366 88.091C48.8702 87.9144 48.8079 87.7349 48.7496 87.5524L45.4418 94.1883H37.7892C36.3186 94.6534 34.8267 94.8883 33.3174 94.8883C31.2322 94.8883 29.249 94.4839 27.3804 93.6706L27.3726 93.6671L27.3647 93.6636C25.5237 92.8326 23.9032 91.7146 22.5129 90.3101L22.5035 90.3006L22.4942 90.2908C21.1333 88.8569 20.0533 87.1892 19.2517 85.299L19.2485 85.2914L19.2454 85.2838C18.4618 83.3673 18.0729 81.336 18.0729 79.201C18.0729 77.0659 18.4618 75.0346 19.2454 73.1182L19.2485 73.1105L19.2517 73.103C20.0543 71.2104 21.1369 69.5525 22.5035 68.1426C23.8961 66.7059 25.5221 65.5826 27.3726 64.776C29.2424 63.9333 31.2284 63.5136 33.3174 63.5136C35.4065 63.5136 37.3925 63.9334 39.2623 64.776C41.111 65.5818 42.7244 66.7047 44.0915 68.1425C45.4852 69.553 46.5696 71.2135 47.3464 73.1106C47.6557 73.8409 47.9057 74.5881 48.0967 75.3516V64.1725H59.1482V82.5364C59.1482 83.3146 59.2947 83.7508 59.445 83.9829ZM72.8501 64.1725H84.4205V72.3163L87.4877 64.1725H127.276L118.016 84.4321H126.605L122.985 94.1883H72.8501V64.1725ZM83.1454 92.9132V65.4475H74.1251V92.9132H83.1454ZM83.7401 92.9132H102.22L104.894 85.7071H96.153L105.413 65.4475H88.37L85.6559 72.6537H92.9999L83.7401 92.9132ZM91.0152 73.9287L84.4205 88.3573V73.9287H91.0152ZM98.1376 84.4321H106.093L110.894 73.9287H103.692L107.22 64.5609L98.1376 84.4321ZM112.878 72.6537L103.619 92.9132H122.098L124.772 85.7071H116.031L125.291 65.4475H108.248L105.534 72.6537H112.878ZM98.3083 69.73L89.2081 89.619H100.144L100.543 88.6307H90.8446L99.9447 68.7418H90.4454L90.0862 69.73H98.3083ZM118.187 69.73L109.087 89.619H120.023L120.422 88.6307H110.723L119.823 68.7418H110.324L109.965 69.73H118.187ZM53.363 68.7418V82.6187C53.363 84.9247 53.9617 86.6954 55.1591 87.9307C56.3831 89.1386 58.1259 89.7425 60.3877 89.7425C62.6494 89.7425 64.3922 89.1386 65.6162 87.9307C66.8402 86.6954 67.4522 84.9247 67.4522 82.6187V68.7418H66.3746V82.6187C66.3746 84.6444 65.8717 86.1617 64.866 87.1705C64.8632 87.1733 64.8604 87.1762 64.8576 87.179C63.8598 88.1743 62.3698 88.6719 60.3877 88.6719C58.411 88.6719 56.9238 88.177 55.9261 87.1873C55.9205 87.1817 55.9149 87.1761 55.9093 87.1705C54.9036 86.1617 54.4007 84.6444 54.4007 82.6187V68.7418H53.363ZM78.1164 68.7418V89.619H79.1542V68.7418H78.1164Z" fill="#FF4FCE"/>
<path d="M112.751 0.526874C108.793 1.08664 104.623 4.55193 102.247 6.75764L105.608 10.8763C109.29 8.17084 112.595 6.68428 113.569 9.54691C123.033 37.3764 135.704 107.397 159.689 102.167C179.101 96.4598 168.94 73.8027 171.77 60.2772C172.31 57.9772 173.7 55.1133 176.343 55.1993C178.814 55.2798 177.736 53.8721 176.945 53.4915C169.25 49.1775 159.653 47.8027 151.559 45.0173C149.011 44.1403 149.797 45.9425 150.402 47.3026C151.559 62.6014 151.565 62.6014 155.772 85.7914C153.549 86.5036 145.998 69.4797 137.899 49.9153C136.491 50.7876 135.184 51.2487 133.741 51.074C137.418 61.3229 141.432 71.4718 146.314 81.5253L142.85 83.3187C132.97 62.9715 126.643 42.4138 119.656 21.6968L123.316 20.3807C123.823 21.8844 124.321 23.381 124.822 24.8802C125.49 24.2607 126.287 23.8084 127.152 23.5586C124.011 15.8188 121.122 8.74616 118.846 3.47731C117.708 1.77512 115.051 0.459737 112.751 0.526874ZM99.4691 9.56336C96.8333 12.4124 94.4448 15.5434 92.7532 18.3457L94.3624 20.3034C96.0851 19.1022 99.2495 16.0738 102.533 13.319L99.4691 9.56336ZM128.694 27.3411C127.596 27.3411 126.748 28.2174 126.748 29.3512C126.748 30.4849 127.596 31.3608 128.694 31.3608C129.792 31.3608 130.641 30.4849 130.641 29.3512C130.641 28.2174 129.792 27.3411 128.694 27.3411ZM131.43 34.9266C130.332 34.9266 129.484 35.8027 129.484 36.9362C129.484 38.07 130.332 38.9463 131.43 38.9463C132.528 38.9463 133.377 38.07 133.377 36.9365C133.377 35.8027 132.528 34.9266 131.43 34.9266ZM134.424 43.0968C133.326 43.0968 132.477 43.9726 132.477 45.1062C132.477 46.2399 133.326 47.1158 134.424 47.1158C135.522 47.1158 136.371 46.2399 136.371 45.1062C136.371 43.9724 135.522 43.0968 134.424 43.0968Z" fill="url(#paint2_linear_209_880)"/>
<defs>
<linearGradient id="paint0_linear_209_880" x1="130.293" y1="48.2923" x2="-18.5845" y2="-93.0738" gradientUnits="userSpaceOnUse">
<stop stop-color="#00168A"/>
<stop offset="1" stop-color="#FA2FFE"/>
</linearGradient>
<linearGradient id="paint1_linear_209_880" x1="96.1532" y1="-1.1756" x2="61.7378" y2="124.541" gradientUnits="userSpaceOnUse">
<stop stop-color="#C7F466"/>
<stop offset="1" stop-color="#00FFD1"/>
</linearGradient>
<linearGradient id="paint2_linear_209_880" x1="135.314" y1="0.524414" x2="135.314" y2="102.445" gradientUnits="userSpaceOnUse">
<stop stop-color="#E363E6"/>
<stop offset="1" stop-color="#8724C9"/>
</linearGradient>
</defs>
</svg>
